# xmcd
#
# Track frame offsets: 
#        150
#        13962
#        25846
#        40927
#        53070
#        69478
#        84591
#        99915
#        114798
#        128339
#        138656
#        153802
#        168368
#        182846
#        194393
#        204692
#        218384
#        231206
#        243435
#        256528
#        269807
#        280225
#        293616
#        305020
#        317770
#        331934
#        342360
#
# Disc length: 4716 seconds
#
# Revision: 0
# Processed by: cddbd v1.5.2PL0 Copyright (c) Steve Scherf et al.
# Submitted via: ExactAudioCopy v0.95b4
#
DISCID=7c126a1b
DTITLE=Engelbert Humperdinck  - The Very Best of Disc 1 [Flac]
DYEAR=1900
DGENRE=
TTITLE0=The Last Waltz
TTITLE1=Ten Guitars
TTITLE2=A Man Without Love
TTITLE3=Quiet Nights
TTITLE4=Can't Take My Eyes Off You
TTITLE5=Winter World of Love
TTITLE6=Release Me
TTITLE7=Quando, Quando, Quando
TTITLE8=There's a Kind of Hush
TTITLE9=Dance with Me
TTITLE10=This is My Song
TTITLE11=Les Bicyclettes De Belsize
TTITLE12=Spanish Eyes
TTITLE13=Three Little Words (I Love You
TTITLE14=Everybody Knows (We're Through
TTITLE15=Wonderful by Night
TTITLE16=All This World and the Seven S
TTITLE17=Nature Boy
TTITLE18=There Goes My Everything
TTITLE19=Funny Familiar Forgotten Feeli
TTITLE20=When I Say Goodnight
TTITLE21=Walk Hand in Hand
TTITLE22=Two Different Worlds
TTITLE23=I'm a Better Man
TTITLE24=Am I That Easy to Get
TTITLE25=Walk Through This World
TTITLE26=Shadow of Your Smile
EXTD=
EXTT0=
EXTT1=
EXTT2=
EXTT3=
EXTT4=
EXTT5=
EXTT6=
EXTT7=
EXTT8=
EXTT9=
EXTT10=
EXTT11=
EXTT12=
EXTT13=
EXTT14=
EXTT15=
EXTT16=
EXTT17=
EXTT18=
EXTT19=
EXTT20=
EXTT21=
EXTT22=
EXTT23=
EXTT24=
EXTT25=
EXTT26=
PLAYORDER=
